
<svg xmlns="http://www.w3.org/2000/svg" version="1.1" xmlns:xlink="http://www.w3.org/1999/xlink" preserveAspectRatio="none" x="0px" y="0px" width="1000px" height="1000px" viewBox="0 0 1000 1000">
<defs>
<g id="Layer0_0_FILL">
<path fill="#FFFFFF" stroke="none" d="
M 1000 500
Q 1000 292.9 853.5 146.4 707.1 0.05 500 0.05 499.4 0.05 498.95 0.05 264.25 12.3 38.85 56.35
L 38.85 56.45
Q 8.7 274.45 0.05 499.6 0.05 499.8 0.05 500 0.05 707.1 146.4 853.5 292.9 1000 500 1000 707.1 1000 853.5 853.5 1000 707.1 1000 500
M 813.6 338.8
Q 856.85 415.8 744.85 552.6 632.95 689.3 576.65 887.4
L 368.95 530.75 813.6 338.8
M 329.3 517.7
L 416.6 667.65 328 807.15 77.6 112.6
Q 328.1 361.15 616.05 353.3 662.85 354.5 718.4 349.95
L 329.3 517.7 Z"/>
</g>
</defs>

<g transform="matrix( 1, 0, 0, 1, 0,0) ">
<use xlink:href="#Layer0_0_FILL"/>
</g>
</svg>
