
<svg xmlns="http://www.w3.org/2000/svg" version="1.1" xmlns:xlink="http://www.w3.org/1999/xlink" preserveAspectRatio="none" x="0px" y="0px" width="1000px" height="1000px" viewBox="0 0 1000 1000">
<defs>
<g id="Layer2_0_FILL">
<path fill="#d4dbd4" stroke="none" d="
M 678.8 678.8
Q 752.9 604.75 752.9 500 752.9 395.25 678.8 321.15 604.75 247.1 500 247.1 499.7 247.1 499.45 247.1 380.75 253.3 266.75 275.6
L 266.75 275.65
Q 251.5 385.9 247.1 499.8 247.1 499.9 247.1 500 247.1 604.75 321.15 678.8 395.25 752.9 500 752.9 604.75 752.9 678.8 678.8
M 558.7 425.8
Q 582.35 426.4 610.45 424.1
L 413.65 508.95 457.8 584.8 413 655.35 286.35 304.05
Q 413.05 429.75 558.7 425.8
M 538.75 695.95
L 433.7 515.55 658.6 418.45
Q 680.5 457.4 623.85 526.6 567.25 595.75 538.75 695.95 Z"/>

<path fill="#333c39" stroke="none" d="
M 433.7 515.55
L 538.75 695.95
Q 567.25 595.75 623.85 526.6 680.5 457.4 658.6 418.45
L 433.7 515.55
M 610.45 424.1
Q 582.35 426.4 558.7 425.8 413.05 429.75 286.35 304.05
L 413 655.35 457.8 584.8 413.65 508.95 610.45 424.1 Z"/>
</g>

<g id="Layer2_1_FILL">
<path fill="#d4dbd4" stroke="none" d="
M 678.8 678.8
Q 752.9 604.75 752.9 500 752.9 395.25 678.8 321.15 604.75 247.1 500 247.1 499.7 247.1 499.45 247.1 380.75 253.3 266.75 275.6
L 266.75 275.65
Q 251.5 385.9 247.1 499.8 247.1 499.9 247.1 500 247.1 604.75 321.15 678.8 395.25 752.9 500 752.9 604.75 752.9 678.8 678.8
M 558.7 425.8
Q 582.35 426.4 610.45 424.1
L 413.65 508.95 457.8 584.8 413 655.35 286.35 304.05
Q 413.05 429.75 558.7 425.8
M 538.75 695.95
L 433.7 515.55 658.6 418.45
Q 680.5 457.4 623.85 526.6 567.25 595.75 538.75 695.95 Z"/>

<path fill="#333c39" stroke="none" d="
M 433.7 515.55
L 538.75 695.95
Q 567.25 595.75 623.85 526.6 680.5 457.4 658.6 418.45
L 433.7 515.55
M 610.45 424.1
Q 582.35 426.4 558.7 425.8 413.05 429.75 286.35 304.05
L 413 655.35 457.8 584.8 413.65 508.95 610.45 424.1 Z"/>
</g>
</defs>

<g transform="matrix( 1.9770660400390625, 0, 0, 1.9770660400390625, -488.5,-488.5) ">
<use xlink:href="#Layer2_0_FILL"/>
</g>

<g transform="matrix( 1.97705078125, 0, 0, 1.97705078125, -488.55,-488.55) ">
<use xlink:href="#Layer2_1_FILL"/>
</g>
</svg>
