<?xml version="1.0" encoding="UTF-8"?>
<svg xmlns="http://www.w3.org/2000/svg" id="Layer_1" data-name="Layer 1" viewBox="0 0 24 24" style="fill: #788b86">
  <path d="M21.896,7.371c-.555,.598-2.089,2.177-4.319,3.897-2.338,1.804-4.986,3.258-5.098,3.319-.149,.082-.314,.123-.479,.123s-.33-.041-.48-.123c-.111-.061-2.759-1.515-5.098-3.319-2.23-1.72-3.764-3.299-4.32-3.898l-.589-.63c-.269,1.387-.513,3.211-.513,5.261,0,4.458,1.156,7.852,1.206,7.994,.112,.324,.383,.568,.717,.646,.178,.042,4.42,1.023,9.078,1.023,4.819,0,8.914-.983,9.086-1.025,.33-.08,.596-.322,.708-.643,.049-.141,1.206-3.51,1.206-7.996,0-2.067-.242-3.886-.509-5.265l-.594,.636Z"/>
  <path d="M3.566,6.007c.409,.44,1.907,2.002,4.078,3.676,1.646,1.27,3.5,2.382,4.356,2.876,.856-.495,2.714-1.608,4.355-2.875,2.172-1.674,3.669-3.236,4.076-3.675l1.493-1.597c-.074-.243-.123-.385-.132-.411-.112-.319-.378-.559-.706-.639-.172-.042-4.257-1.025-9.087-1.025-4.744,0-8.907,.982-9.082,1.024-.333,.08-.601,.323-.712,.646-.009,.027-.057,.167-.129,.407l1.49,1.595Z"/>
</svg>
